<?xml version="1.0" encoding="UTF-8"?>
<svg xmlns="http://www.w3.org/2000/svg" version="1.1" xmlns:xlink="http://www.w3.org/1999/xlink" viewBox="0 0 595.3 841.9">
  <defs>
    <style>
      .cls-1 {
        fill: #757575;
      }

      .cls-2 {
        font-size: 6.4px;
      }

      .cls-2, .cls-3, .cls-4, .cls-5, .cls-6, .cls-7, .cls-8, .cls-9, .cls-10, .cls-11, .cls-12, .cls-13, .cls-14, .cls-15, .cls-16 {
        isolation: isolate;
      }

      .cls-2, .cls-3, .cls-4, .cls-5, .cls-6, .cls-7, .cls-9, .cls-10, .cls-11, .cls-12, .cls-13, .cls-14, .cls-15, .cls-16 {
        font-family: ArialMT, Arial;
      }

      .cls-2, .cls-4, .cls-5, .cls-6, .cls-7, .cls-10, .cls-11, .cls-12, .cls-13, .cls-14, .cls-16 {
        fill: #1d1d1b;
      }

      .cls-3 {
        fill: #e30d13;
      }

      .cls-3, .cls-5, .cls-9, .cls-15 {
        font-size: 11.2px;
      }

      .cls-4 {
        font-size: 6px;
      }

      .cls-17 {
        fill: #fff;
      }

      .cls-6 {
        font-size: 6.5px;
      }

      .cls-18 {
        fill: none;
        stroke: #1d1d1b;
        stroke-miterlimit: 10;
      }

      .cls-7 {
        font-size: 4.5px;
      }

      .cls-9 {
        fill: #e62c28;
      }

      .cls-10 {
        font-size: 6.9px;
      }

      .cls-19 {
        fill: url(#_Безымянный_градиент_2);
      }

      .cls-11 {
        font-size: 3.9px;
      }

      .cls-12 {
        font-size: 6.2px;
      }

      .cls-13 {
        font-size: 5.8px;
      }

      .cls-20 {
        fill: url(#_Безымянный_градиент);
      }

      .cls-14 {
        font-size: 6.4px;
      }

      .cls-15 {
        fill: #e52320;
      }

      .cls-16 {
        font-size: 6.3px;
      }
    </style>
    <linearGradient id="_Безымянный_градиент" data-name="Безымянный градиент" x1="59.2" y1="375.9" x2="293" y2="375.9" gradientTransform="translate(0 841.9) scale(1 -1)" gradientUnits="userSpaceOnUse">
      <stop offset="0" stop-color="#ccc"/>
      <stop offset=".4" stop-color="#cacaca"/>
      <stop offset=".6" stop-color="#c3c3c3"/>
      <stop offset=".7" stop-color="#b7b7b7"/>
      <stop offset=".8" stop-color="#a6a6a6"/>
      <stop offset=".8" stop-color="#919090"/>
      <stop offset=".9" stop-color="#767575"/>
      <stop offset="1" stop-color="#565555"/>
      <stop offset="1" stop-color="#454444"/>
    </linearGradient>
    <linearGradient id="_Безымянный_градиент_2" data-name="Безымянный градиент 2" x1="48.1" y1="364.2" x2="307.5" y2="364.2" gradientTransform="translate(0 841.9) scale(1 -1)" gradientUnits="userSpaceOnUse">
      <stop offset="0" stop-color="#a4a3a3"/>
      <stop offset=".5" stop-color="#a2a1a1"/>
      <stop offset=".6" stop-color="#9b9a9a"/>
      <stop offset=".7" stop-color="#8f8e8e"/>
      <stop offset=".8" stop-color="#7e7d7d"/>
      <stop offset=".9" stop-color="#686767"/>
      <stop offset="1" stop-color="#4e4d4d"/>
      <stop offset="1" stop-color="#454444"/>
    </linearGradient>
  </defs>
  <!-- Generator: Adobe Illustrator 28.7.1, SVG Export Plug-In . SVG Version: 1.2.0 Build 142)  -->
  <g>
    <g id="_Слой_1" data-name="Слой_1">
      <g id="_Слой_1-2" data-name="_Слой_1">
        <g>
          <path class="cls-20" d="M59.2,375.1l1.8,218.3s-5.4,28.4,61.4,28.7h124.9s43.4,2.6,44.1-28.4l1.5-226.6s-1.8-25.8-23.7-27.6l-1.8-5.3-.5-21.9s.4-2.4-4.7-2.4l-26.7.3s-4.3-.3-4.3,2.5v20.9l-4.2,6-102,.5-3.3-7.5v-19.8c-.1,0,.5-2.9-4.3-2.9h-27.1s-4,.1-4,3.2l-.2,18.8-3.2,8.4h-8.1c0,.1-16-1.5-15.7,34.8h0Z"/>
          <path class="cls-1" d="M104.8,418.2v-49.4c0-4.2,3.4-7.7,7.6-7.7h122.6c4.2,0,7.6,3.4,7.6,7.7v73.9c0,4.2-3.4,7.7-7.6,7.7h-122.6c-4.2,0-7.6-3.4-7.6-7.7v-24.5h0Z"/>
          <path class="cls-17" d="M235.9,437.3v-60.8c0-2.6-2.1-4.7-4.7-4.7h-114.8c-2.6,0-4.7,2.1-4.7,4.7v62.8c0,2.6,2.1,4.7,4.7,4.7h114.8c2.6,0,4.7-2.1,4.7-4.7v-2Z"/>
          <path class="cls-19" d="M60,467.2v6.4c.2,2.1-.4,4.5,1.7,4.9l4.5,1c2.4.5,4.9.8,7.3.8l199.9-1.3c2.7,0,5.4-.4,8-1.1l5.6-1.5c1.3-.3,2.5-.8,3.7-1.4h0c1-.5,1.6-1.4,1.6-2.5,0-.4,0-.8,0-1.4v-5.1s37.8,19-6.1,22.5c-1.3,0-2.6.2-3.9.2l-204.2.6c-1.4,0-2.8,0-4.2.1-8.9.4-43.6-.4-13.8-22.1h0Z"/>
          <g class="cls-8">
            <text class="cls-5" transform="translate(122.9 428.4)"><tspan x="0" y="0">0</tspan></text>
          </g>
          <g class="cls-8">
            <text class="cls-5" transform="translate(133.5 428.4)"><tspan x="0" y="0">0</tspan></text>
          </g>
          <g class="cls-8">
            <text class="cls-5" transform="translate(144.9 428.4)"><tspan x="0" y="0">0</tspan></text>
          </g>
          <g class="cls-8">
            <text class="cls-5" transform="translate(155.7 428.5)"><tspan x="0" y="0">0</tspan></text>
          </g>
          <g class="cls-8">
            <text class="cls-3" transform="translate(177.8 428.4)"><tspan x="0" y="0">0</tspan></text>
          </g>
          <g class="cls-8">
            <text class="cls-5" transform="translate(166.7 428.6)"><tspan x="0" y="0">3</tspan></text>
          </g>
          <g class="cls-8">
            <text class="cls-9" transform="translate(188.6 428.5)"><tspan x="0" y="0">8</tspan></text>
          </g>
          <g class="cls-8">
            <text class="cls-15" transform="translate(200.2 428.8)"><tspan x="0" y="0">8</tspan></text>
          </g>
          <g class="cls-8">
            <text class="cls-2" transform="translate(211.5 429.7) scale(1.1 1)"><tspan x="0" y="0">M</tspan></text>
          </g>
          <g class="cls-8">
            <text class="cls-7" transform="translate(217.3 426.8)"><tspan x="0" y="0">3</tspan></text>
          </g>
          <g class="cls-8">
            <text class="cls-12" transform="translate(119.3 395.2)"><tspan x="0" y="0">ТУ 4213-054-51416204-01</tspan></text>
          </g>
          <g class="cls-8">
            <text class="cls-14" transform="translate(173.2 401.5)"><tspan x="0" y="0">Р 50 кПа</tspan></text>
          </g>
          <g class="cls-8">
            <text class="cls-13" transform="translate(173.7 407.9) scale(1 1)"><tspan x="0" y="0">V= 1,2 дм</tspan></text>
          </g>
          <g class="cls-8">
            <text class="cls-11" transform="translate(196.2 405.7)"><tspan x="0" y="0">3</tspan></text>
          </g>
          <g class="cls-8">
            <text class="cls-10" transform="translate(128.9 387.8)"><tspan x="0" y="0">СГК G 4</tspan></text>
          </g>
          <rect class="cls-18" x="119.3" y="416.9" width="90.3" height="16.3"/>
          <g class="cls-8">
            <text class="cls-4" transform="translate(119 408)"><tspan x="0" y="0">Q</tspan></text>
          </g>
          <g class="cls-8">
            <text class="cls-6" transform="translate(133.9 408.4)"><tspan x="0" y="0">0,04</tspan></text>
          </g>
          <g class="cls-8">
            <text class="cls-4" transform="translate(119.2 401.6)"><tspan x="0" y="0">Q</tspan></text>
          </g>
          <g class="cls-8">
            <text class="cls-16" transform="translate(133.9 402.1)"><tspan x="0" y="0">6</tspan></text>
          </g>
        </g>
      </g>
    </g>
  </g>
</svg>