<?xml version="1.0" encoding="UTF-8"?>
<svg xmlns="http://www.w3.org/2000/svg" version="1.1" viewBox="0 0 595.3 841.9">
  <defs>
    <style>
      .cls-1 {
        fill: #c26363;
      }

      .cls-2 {
        fill: #fff;
      }
    </style>
  </defs>
  <!-- Generator: Adobe Illustrator 28.7.1, SVG Export Plug-In . SVG Version: 1.2.0 Build 142)  -->
  <g>
    <g id="_Слой_1" data-name="Слой_1">
      <g>
        <polygon class="cls-2" points="207.1 527.6 363.9 527.6 363.9 419.3 317.1 445 317.1 419.3 273.4 440.1 263.7 444.6 263.8 419.2 207.1 444.3 207.1 527.6"/>
        <polygon class="cls-2" points="273.2 368 273.4 440.1 303.9 425.6 303.9 368 280.6 368 273.2 368"/>
        <path class="cls-2" d="M277.9,336c-5.9,6-2.8,16,8.8,32,0,0,3-3.5,12.9-14.1s31,3.3,43.3,9.8c5.9,3.1,12.7,4.3,19.3,3.2,11.1-1.9,26.2-7.3,25.9-22.1-.2-13.2-11.6-21.3-21.5-25.9-9.3-4.3-19.9-5.2-29.7-2.3-6.3,1.8-12.7,4.9-15.2,10-3.6,7.1-14.3,5.8-21.6,3.8s-16.5-.2-22.2,5.6Z"/>
        <rect class="cls-1" x="221.6" y="469.8" width="33" height="14.6"/>
        <rect class="cls-1" x="221.6" y="498.7" width="33" height="14.6"/>
        <rect class="cls-1" x="269" y="469.8" width="33" height="14.6"/>
        <rect class="cls-1" x="269" y="498.7" width="33" height="14.6"/>
        <rect class="cls-1" x="316.4" y="469.8" width="33" height="14.6"/>
        <rect class="cls-1" x="316.4" y="498.7" width="33" height="14.6"/>
      </g>
    </g>
  </g>
</svg>