<?xml version="1.0" encoding="UTF-8"?>
<svg xmlns="http://www.w3.org/2000/svg" version="1.1" viewBox="0 0 595.3 841.9">
  <defs>
    <style>
      .cls-1 {
        fill: #c26363;
      }

      .cls-2 {
        fill: #fff;
      }
    </style>
  </defs>
  <!-- Generator: Adobe Illustrator 28.7.1, SVG Export Plug-In . SVG Version: 1.2.0 Build 142)  -->
  <g>
    <g id="_Слой_1" data-name="Слой_1">
      <polygon class="cls-2" points="-165 522.1 -121.8 522.1 -121.8 492.3 -134.7 499.4 -134.7 492.3 -146.7 498 -149.4 499.3 -149.4 492.3 -165 499.2 -165 522.1"/>
      <polygon class="cls-2" points="-146.8 478.2 -146.7 498 -138.3 494 -138.3 478.2 -144.7 478.2 -146.8 478.2"/>
      <path class="cls-1" d="M-145.5,469.3c-1.6,1.7-.8,4.4,2.4,8.8,0,0,.8-1,3.5-3.9s8.5.9,11.9,2.7,3.5,1.2,5.3.9c3.1-.5,7.2-2,7.1-6.1s-3.2-5.9-5.9-7.1-5.5-1.4-8.2-.6-3.5,1.4-4.2,2.8-3.9,1.6-6,1.1-4.5,0-6.1,1.5Z"/>
      <rect class="cls-1" x="-161" y="506.2" width="9.1" height="4"/>
      <rect class="cls-1" x="-161" y="514.1" width="9.1" height="4"/>
      <rect class="cls-1" x="-147.9" y="506.2" width="9.1" height="4"/>
      <rect class="cls-1" x="-147.9" y="514.1" width="9.1" height="4"/>
      <rect class="cls-1" x="-134.9" y="506.2" width="9.1" height="4"/>
      <rect class="cls-1" x="-134.9" y="514.1" width="9.1" height="4"/>
    </g>
  </g>
</svg>